# xmcd CD database file
#
# Track frame offsets:
#	150
#	12407
#	24280
#	39060
#	53424
#	64135
#	78395
#	89345
#	103229
#	116130
#	130857
#	141653
#	155006
#	168855
#	182476
#	196378
#	212327
#	224879
#	238855
#	252781
#	265838
#	278240
#	293562
#	307104
#
# Disc length: 4247 seconds
#
# Revision: 2
# Processed by: cddbd v1.5.2PL0 Copyright (c) Steve Scherf et al.
# Submitted via: CDex 1.51
#
DISCID=5d109518
DTITLE=The Inkspots - The Classic Years  { 1936-1949 }  [CD 1-2]
DYEAR=2009
DGENRE=Jazz
TTITLE0=Whispering Grass  [1940]
TTITLE1=Swing High, Swing Low  [1937]
TTITLE2=We'll Meet Again  [1941]
TTITLE3=My Prayer  [1939]
TTITLE4=Yes Suh  [1937]
TTITLE5=When The Sun Goes Down  [1938]
TTITLE6=It's A Sin To Tell A Lie  [1941]
TTITLE7=Don't Get Around Much Anymore  [1942]
TTITLE8=With Plenty Of Money And You  [1937]
TTITLE9=I'm Making Believe  (with Ella Fitgerald)  [1944]
TTITLE10=Slap That Bass  [1937]
TTITLE11=Address Unknown  [1939]
TTITLE12=If I Didn't Care  [1939]
TTITLE13=Java Jive  [1940]
TTITLE14=Prisoner Of Love  [1946]
TTITLE15=Until The Real Thing Come Along  [1941]
TTITLE16=I'm Getting Sentimental Over You  [1939]
TTITLE17=I Don't Want To Set The World On Fire  [1941]
TTITLE18=Maybe  [1940]
TTITLE19=Cow Cow Boogie  (with Ella Fitzgerald)  [1943]
TTITLE20=The Gypsy  [1946]
TTITLE21=I'll Never Smile Again  [1940]
TTITLE22=Memories Of You  [1939]
TTITLE23=Let's Call The Whole Thing Off  [1937]
EXTD=YEAR: 2009
EXTT0=
EXTT1=
EXTT2=
EXTT3=
EXTT4=
EXTT5=
EXTT6=
EXTT7=
EXTT8=
EXTT9=
EXTT10=
EXTT11=
EXTT12=
EXTT13=
EXTT14=
EXTT15=
EXTT16=
EXTT17=
EXTT18=
EXTT19=
EXTT20=
EXTT21=
EXTT22=
EXTT23=
PLAYORDER=
